
        <svg xmlns="http://www.w3.org/2000/svg" xmlns:xlink="http://www.w3.org/1999/xlink" version="1.1" width="3227.0181861046303" 
        height="3268.918182175386" viewBox="0 0 3227.0181861046303 3268.918182175386">
			
			<g transform="scale(13.44590910876929) translate(10, 10)">
				<defs id="SvgjsDefs1640"><linearGradient id="SvgjsLinearGradient1643"><stop id="SvgjsStop1644" stop-color="#ef4136" offset="0"></stop><stop id="SvgjsStop1645" stop-color="#fbb040" offset="1"></stop></linearGradient></defs><g id="SvgjsG1641" featureKey="0kuQ8p-0" transform="matrix(15.580737722522901,0,0,15.580737722522901,-9.660055604890271,-90.99148838854155)" fill="url(#SvgjsLinearGradient1643)"><path d="M5.1 14.780000000000001 l2.08 0 l0 1.86 c0 2.24 -1.12 3.52 -3.28 3.52 s-3.28 -1.28 -3.28 -3.52 l0 -7.28 c0 -2.24 1.12 -3.52 3.28 -3.52 s3.28 1.28 3.28 3.52 l0 1.36 l-2.08 0 l0 -1.5 c0 -1 -0.44 -1.38 -1.14 -1.38 s-1.14 0.38 -1.14 1.38 l0 7.56 c0 1 0.44 1.36 1.14 1.36 s1.14 -0.36 1.14 -1.36 l0 -2 z M8.24 9.36 c0 -2.24 1.1 -3.52 3.24 -3.52 s3.24 1.28 3.24 3.52 l0 0.44 l-2.08 0 l0 -0.58 c0 -1 -0.4 -1.38 -1.1 -1.38 s-1.1 0.38 -1.1 1.38 c0 1.02 0.44 1.78 1.88 3.04 c1.84 1.62 2.42 2.78 2.42 4.38 c0 2.24 -1.12 3.52 -3.28 3.52 s-3.28 -1.28 -3.28 -3.52 l0 -0.86 l2.08 0 l0 1 c0 1 0.44 1.36 1.14 1.36 s1.14 -0.36 1.14 -1.36 c0 -1.02 -0.44 -1.78 -1.88 -3.04 c-1.84 -1.62 -2.42 -2.78 -2.42 -4.38 z"></path></g>
			</g>
		</svg>
	