
        <svg xmlns="http://www.w3.org/2000/svg" xmlns:xlink="http://www.w3.org/1999/xlink" version="1.1" width="3300" 
        height="796.5060586552834" viewBox="0 0 3300 796.5060586552834">
			
			<g transform="scale(15) translate(10, 10)">
				<defs id="SvgjsDefs1951"><linearGradient id="SvgjsLinearGradient1954"><stop id="SvgjsStop1955" stop-color="#ef4136" offset="0"></stop><stop id="SvgjsStop1956" stop-color="#fbb040" offset="1"></stop></linearGradient></defs><g id="SvgjsG1952" featureKey="nameFeature-0" transform="matrix(0.9194556641764509,0,0,0.9194556641764509,-0.8826774726838429,-10.48179422086704)" fill="url(#SvgjsLinearGradient1954)"><path d="M0.96 25.880000000000003 c0 -8.2 7.72 -14.48 15.6 -14.48 c3.92 0 6.44 1.96 7.48 1.96 c0.88 0 1.12 -0.28 1.8 -0.28 c1.68 0 3.84 2.52 3.84 6.96 c0 2.28 -1.36 4.2 -3.72 4.2 c-4.12 0 -3.08 -7.08 -10.2 -7.08 c-3.08 0 -4.36 2.88 -4.36 5.08 c0 5.92 3.16 10.96 8.76 10.96 c5.08 0 5.84 -2.76 7.08 -2.76 c1.16 0 1.72 1.36 1.72 2.36 c0 1.76 -1.84 5.44 -3.84 5.44 c-1.36 0 -4.16 2.32 -8.88 2.32 c-8.4 0 -15.28 -6.64 -15.28 -14.68 z M42.44 21.44 l0 11.16 c0 4.72 2.36 3 2.36 5.12 c0 2.72 -5.08 2.72 -6.88 2.72 c-6.88 0 -7.16 -1.56 -7.16 -2.52 c0 -1.44 1.64 -1.52 2.12 -2.76 c0.52 -1.4 0.6 -7.2 0.16 -8.68 c-0.36 -1.4 -2.4 -0.96 -2.4 -2.76 c0 -2.84 10.16 -4.04 10.56 -4.04 c1.2 0 1.24 0.92 1.24 1.76 z M42.24 14.48 c0 3.12 -5.44 3.92 -7.72 3.92 c-1.68 0 -3.48 -0.76 -3.48 -2.72 c0 -2.64 5.28 -3.72 7.32 -3.72 c1.6 0 3.88 0.52 3.88 2.52 z M57.160000000000004 30.240000000000002 l0 3.08 c0 3.88 1.36 3.2 1.36 4.72 c0 2.48 -5.32 2.4 -6.96 2.4 c-1.6 0 -5.68 0 -5.68 -2.4 c0 -1.92 1.84 -0.2 1.96 -4.12 l0.16 -6 c0.08 -2.96 -2.36 -2 -2.36 -4.12 s9.2 -4.12 10 -4.12 c0.88 0 1.44 0.76 1.44 1.56 c0 0.24 -0.04 0.48 -0.04 0.72 c0 0.48 0.2 1.04 0.8 1.04 c0.64 0 1 -0.84 1.8 -1.68 c0.8 -0.8 2 -1.64 4.28 -1.64 c8.28 0 6.88 8.12 7.28 14.2 c0.2 3.16 1.84 2.44 1.84 4.16 c0 0.72 0.16 2.4 -7.36 2.4 c-1.44 0 -5.28 0.08 -5.28 -2.16 c0 -1.44 1.32 -0.76 1.52 -3.36 c0.2 -2.84 1.32 -9.24 -2.44 -9.24 c-2.56 0 -2.32 2.76 -2.32 4.56 z M92.67999999999999 30.8 l-8.68 0 c-0.44 0 -1.08 -0.12 -1.08 0.56 c0 2 2.6 3.68 4.48 3.68 c3 0 4.48 -1.8 5.32 -1.8 s1.56 1.24 1.56 2 c0 3.08 -5.64 5.32 -9.24 5.32 c-7.2 0 -10.92 -5.2 -10.92 -10.36 c0 -6.16 5.24 -10.64 11.24 -10.64 c6.8 0 9.8 5.24 9.8 8.24 c0 2.64 -1.2 3 -2.48 3 z M85.12 26.96 c1.08 0 2.36 0.24 2.36 -1.2 s-0.88 -2.56 -2.36 -2.56 c-1.32 0 -2.4 1.36 -2.4 2.64 c0 1.44 1.36 1.12 2.4 1.12 z M101.12 27.8 c-2.2 -1.76 -3.8 -4.2 -3.8 -7.08 c0 -4.16 4 -9.32 11.76 -9.32 c2.56 0 5.44 1.16 6.04 1.16 c0.56 0 1.12 -0.48 1.96 -0.48 c1.36 0 4.4 2.96 4.4 6.32 c0 1.36 -0.88 2.72 -2.36 2.72 c-2.68 0 -4.24 -4.56 -8.4 -4.56 c-1.24 0 -2.56 0.56 -2.56 2 c0 3.16 5.48 2.32 10.12 5.4 c2.48 1.64 3.72 3.64 3.72 6.64 c0 4.68 -3.84 9.96 -13.16 9.96 c-2.64 0 -7.16 -0.68 -9.44 -1.92 c-1.92 -1.08 -2.84 -5.32 -2.84 -7.36 c0 -1.08 0.48 -2.16 1.68 -2.16 c2.84 0 2.36 6.36 9.72 6.36 c0.88 0 3.08 -0.44 3.08 -1.96 c0 -2.88 -5.48 -2.16 -9.92 -5.72 z M123.52000000000001 30 c0 -5.76 5 -10.44 11.72 -10.44 c6 0 9.16 3.32 9.16 6.12 c0 2.24 -1.68 3.96 -3.92 3.96 c-4.32 0 -2.32 -4.96 -5.48 -4.96 c-1.76 0 -2.72 1.8 -2.72 3.4 c0 2.96 2.2 5.96 5.36 5.96 c2.52 0 3.36 -1.04 4.2 -1.04 c1.08 0 1.8 1.2 1.8 2.16 c0 2.36 -3.6 5.4 -9.2 5.4 c-6.04 0 -10.92 -4.44 -10.92 -10.56 z M156.12 31.4 c-1.36 0 -2.28 1.28 -2.28 2.56 c0 1.04 0.56 2.16 1.72 2.16 c1.52 0 1.64 -1.64 1.64 -2.84 c0 -0.88 0.04 -1.88 -1.08 -1.88 z M165.84 26.439999999999998 l0 4 c0 7.04 2.4 3.2 2.4 5.36 c0 2.28 -3.12 4.76 -6.04 4.76 c-3.16 0 -3.24 -2.04 -4.24 -2.04 c-0.48 0 -1 0.52 -1.88 1 c-0.88 0.52 -2.08 1.04 -3.92 1.04 c-3.32 0 -6.64 -1.76 -6.64 -5.72 c0 -2.84 2.72 -6.36 9.76 -6.36 c1.24 0 1.8 0.08 1.8 -1.36 c0 -1.32 -0.04 -4.08 -1.88 -4.08 c-2.4 0 -2.64 4.32 -6.2 4.32 c-1.28 0 -2.24 -0.92 -2.24 -2.2 c0 -3.4 6.76 -5.6 10.56 -5.6 c2.28 0 8.52 0.88 8.52 6.88 z M186.20000000000002 30.560000000000002 c0 -1.92 -0.4 -5.08 -2.92 -5.08 c-1.44 0 -1.92 0.6 -1.92 7.88 c0 1.32 0.64 1.8 2.04 1.8 c2.48 0 2.8 -2.68 2.8 -4.6 z M172.32000000000002 34.28 l0 -2.2 c0 -4.2 -0.24 -5.12 -0.44 -5.32 c-0.52 -0.52 -2.68 0 -2.68 -2.28 c0 -2.72 8.24 -4.8 11.2 -4.8 c0.96 0 1.12 0.32 1.12 1.2 c0 0.28 0.04 0.84 0.44 0.84 c0.56 0 2.8 -2.16 6.08 -2.16 c5.24 0 8.04 5.24 8.04 9.92 c0 5.36 -3.8 11.08 -9.64 11.08 c-1.88 0 -3.76 -1 -4.12 -1 c-0.56 0 -0.64 0.84 -0.64 1.28 c0 3.04 2.48 2.08 2.48 4.04 c0 2.24 -3.64 2.52 -5.2 2.52 c-5.36 0 -9.56 -1.96 -9.56 -4 c0 -1.8 1.64 -1.12 2.36 -2.68 c0.4 -0.84 0.56 -2 0.56 -6.44 z M216.00000000000003 30.8 l-8.68 0 c-0.44 0 -1.08 -0.12 -1.08 0.56 c0 2 2.6 3.68 4.48 3.68 c3 0 4.48 -1.8 5.32 -1.8 s1.56 1.24 1.56 2 c0 3.08 -5.64 5.32 -9.24 5.32 c-7.2 0 -10.92 -5.2 -10.92 -10.36 c0 -6.16 5.24 -10.64 11.24 -10.64 c6.8 0 9.8 5.24 9.8 8.24 c0 2.64 -1.2 3 -2.48 3 z M208.44000000000003 26.96 c1.08 0 2.36 0.24 2.36 -1.2 s-0.88 -2.56 -2.36 -2.56 c-1.32 0 -2.4 1.36 -2.4 2.64 c0 1.44 1.36 1.12 2.4 1.12 z"></path></g>
			</g>
		</svg>
	